<svg aria-hidden="true" style="position: absolute; width: 0; height: 0; overflow: hidden;" version="1.1" xmlns="http://www.w3.org/2000/svg" xmlns:xlink="http://www.w3.org/1999/xlink">
<defs>
<symbol id="icon-glass" viewBox="0 0 32 32">
<path d="M31.445 27.203c0.542 0.542 0.877 1.291 0.877 2.118 0 1.655-1.341 2.996-2.996 2.996-0.828 0-1.577-0.335-2.119-0.878l-8.78-8.778c-1.737 1.048-3.834 1.668-6.077 1.669h-0c-6.618 0-11.983-5.365-11.983-11.983s5.365-11.983 11.983-11.983c6.618 0 11.983 5.365 11.983 11.983v0c-0.001 2.242-0.621 4.34-1.699 6.131l0.030-0.054 8.78 8.78zM12.351 3.357c-4.964 0.001-8.987 4.024-8.987 8.988s4.024 8.988 8.988 8.988c0 0 0.001 0 0.001 0h-0c4.963-0.001 8.986-4.024 8.986-8.987s-4.024-8.987-8.987-8.987c-0 0-0.001 0-0.001 0h0z"></path>
</symbol>
<symbol id="icon-shoping-cart" viewBox="0 0 38 32">
<path d="M38.631 8.694h0.002l-5.394 11.986c-0.272 0.594-0.842 1.009-1.513 1.057l-0.006 0-15.534 1.035 0.898 2.563h16.914c1.986 0 3.596 1.61 3.596 3.596s-1.61 3.596-3.596 3.596c-1.985 0-3.595-1.609-3.596-3.594v-0h-16.781c-0.001 1.985-1.611 3.594-3.596 3.594s-3.596-1.61-3.596-3.596 1.61-3.596 3.596-3.596h3.249l-6.922-19.775h-4.119c-0.993 0-1.798-0.805-1.798-1.798s0.805-1.798 1.798-1.798v0h5.394c0.785 0 1.445 0.506 1.691 1.205l0.007-0.002 1.046 2.992h26.623c0.992 0.002 1.794 0.806 1.794 1.798 0 0.267-0.058 0.52-0.162 0.748l0.005-0.011zM11.631 9.755l3.323 9.495 15.449-1.031 3.809-8.465h-22.582z"></path>
</symbol>
</defs>
</svg>
