<svg aria-hidden="true" style="position: absolute; width: 0; height: 0; overflow: hidden;" version="1.1" xmlns="http://www.w3.org/2000/svg" xmlns:xlink="http://www.w3.org/1999/xlink">
<defs>
<symbol id="icon-facebook" viewBox="0 0 16 32">
<path d="M15.586 0.249v5.147s-3.793-0.378-4.744 1.075c-0.52 0.794-0.211 3.123-0.257 4.794h5.032c-0.425 1.953-0.729 3.277-1.043 4.969h-4.017v15.992h-6.972v-15.93h-2.966v-5.031h2.934c0.15-3.68 0.206-7.324 2.035-9.18 2.053-2.087 4.013-1.836 9.998-1.836z"></path>
</symbol>
<symbol id="icon-instagram" viewBox="0 0 32 32">
<path d="M28.37 32.225h-23.981c-2.207 0-3.997-1.789-3.997-3.997 0-0 0-0.001 0-0.001v0-23.98c0-0 0-0.001 0-0.001 0-2.207 1.789-3.997 3.997-3.997h23.981c2.207 0 3.997 1.789 3.997 3.997 0 0 0 0.001 0 0.001v-0 23.98c0 0 0 0.001 0 0.001 0 2.207-1.789 3.997-3.997 3.997v0zM16.379 10.041c-2.477 0.002-4.613 1.457-5.602 3.559l-0.016 0.038h-0.006l-0.027 0.069c-0.042 0.089-0.096 0.221-0.145 0.356l-0.015 0.045c-0.024 0.066-0.050 0.13-0.071 0.195-0.035 0.101-0.076 0.243-0.111 0.387l-0.008 0.037c-0.018 0.066-0.037 0.132-0.052 0.2-0.025 0.114-0.052 0.27-0.073 0.428l-0.003 0.031c-0.009 0.062-0.021 0.124-0.029 0.187-0.023 0.201-0.036 0.433-0.036 0.669 0 3.422 2.774 6.195 6.195 6.195s6.195-2.774 6.195-6.195c0-0.236-0.013-0.468-0.039-0.697l0.003 0.028c-0.008-0.064-0.020-0.125-0.029-0.187-0.024-0.189-0.051-0.346-0.083-0.5l0.007 0.040c-0.015-0.067-0.035-0.134-0.052-0.2-0.043-0.182-0.084-0.324-0.13-0.463l0.011 0.039c-0.021-0.065-0.047-0.129-0.071-0.195-0.064-0.18-0.118-0.312-0.176-0.442l0.017 0.041-0.027-0.069h-0.006c-1.005-2.14-3.141-3.596-5.618-3.597h-0zM28.769 5.444c-0.001-0.882-0.716-1.598-1.599-1.598 0 0 0 0 0 0h-3.197c-0.883 0-1.598 0.715-1.599 1.597v3.199c0 0.883 0.716 1.599 1.599 1.599h3.197c0.883 0 1.599-0.716 1.599-1.599v0-3.199zM28.769 13.638h-2.948c0.223 0.779 0.351 1.674 0.351 2.599 0 5.407-4.384 9.791-9.791 9.791-0.001 0-0.002 0-0.003 0h0c-0.001 0-0.002 0-0.003 0-5.407 0-9.791-4.384-9.791-9.791 0-0.925 0.128-1.82 0.368-2.668l-0.017 0.069h-2.948v13.39c0 0 0 0.001 0 0.001 0 0.883 0.716 1.599 1.599 1.599h21.583c0.883 0 1.599-0.716 1.599-1.599 0-0 0-0.001 0-0.001v0-13.39z"></path>
</symbol>
<symbol id="icon-pinterest" viewBox="0 0 26 32">
<path d="M11.991 21.051c-0.261 1.040-0.525 2.131-0.797 3.197-0.269 1.052-0.506 2.118-0.897 3.085-0.648 1.6-1.471 3.146-2.552 4.398-0.718 0.833-0.566 0.501-0.782 0.456-0.165-0.035-0.179-0.196-0.211-0.431-0.176-1.271-0.056-2.742 0.009-4.171 0.075-1.629 0.417-2.983 0.736-4.335 0.605-2.578 1.182-5.105 1.792-7.699 0.040-0.172 0.15-0.457 0.112-0.556-0.277-0.721-0.457-1.368-0.536-2.125-0.026-0.222-0.040-0.478-0.040-0.739 0-0.6 0.078-1.182 0.225-1.735l-0.011 0.047c0.346-1.321 1.14-2.492 2.366-2.92 0.779-0.27 1.642-0.147 2.167 0.165 0.54 0.323 0.911 0.833 1.083 1.556 0.185 0.768 0.049 1.687-0.1 2.362-0.334 1.523-0.772 2.665-1.17 4.134-0.197 0.728-0.421 1.476-0.236 2.263 0.17 0.722 0.546 1.219 1.058 1.593 0.532 0.387 1.162 0.598 2.030 0.568 1.534-0.054 2.599-1.034 3.311-1.958 1.14-1.48 1.83-3.477 2.092-5.853 0.084-0.767 0.146-1.647 0.087-2.516-0.11-1.604-0.611-2.894-1.408-3.893-0.757-0.953-1.831-1.71-3.138-2.137-1.295-0.422-3.088-0.563-4.68-0.291-2.895 0.496-4.936 2.141-6.139 4.413-0.659 1.207-1.046 2.645-1.046 4.172 0 0.031 0 0.061 0 0.091l-0-0.005c0 1.313 0.324 2.329 0.847 3.123 0.166 0.251 0.41 0.458 0.572 0.746 0.231 0.407-0.035 1.013-0.149 1.454-0.137 0.531-0.152 1.264-0.772 1.276-0.257 0.005-0.58-0.182-0.797-0.303-1.63-0.901-2.619-2.539-3.025-4.664-0.118-0.608-0.185-1.307-0.185-2.022s0.067-1.414 0.196-2.092l-0.011 0.069c0.683-3.294 2.695-6.021 5.437-7.645l0.053-0.029c1.394-0.824 2.966-1.403 4.88-1.681 0.575-0.080 1.268-0.14 1.969-0.164l0.035-0.001c0.162-0.008 0.351-0.012 0.542-0.012 1.759 0 3.431 0.377 4.938 1.055l-0.076-0.031c1.461 0.653 2.7 1.558 3.714 2.672l0.008 0.009c1.047 1.143 1.809 2.472 2.291 4.133 0.252 0.864 0.497 1.789 0.497 2.857 0 1.072-0.226 2.015-0.385 2.958-0.592 3.532-2.272 6.421-4.794 8.066-0.63 0.417-1.357 0.761-2.132 0.995l-0.059 0.015c-0.833 0.242-1.784 0.425-2.802 0.353-0.917-0.053-1.763-0.314-2.505-0.736l0.028 0.015c-0.674-0.381-1.242-0.848-1.644-1.554z"></path>
</symbol>
<symbol id="icon-twitter" viewBox="0 0 38 32">
<path d="M25.878 1.528c3.005-0.053 4.606 1.042 6.134 2.434 1.297-0.111 2.983-0.835 3.976-1.34l0.965-0.527c-0.567 1.532-1.336 2.732-2.518 3.644-0.263 0.201-0.523 0.474-0.853 0.603v0.019c1.684-0.016 3.073-0.777 4.393-1.189v0.019c-0.693 1.101-1.631 2.219-2.632 3.020l-1.212 0.962c0.022 1.784-0.027 3.486-0.359 4.984-1.939 8.711-7.075 14.624-15.203 17.158-2.92 0.909-7.636 1.283-10.982 0.452-1.658-0.411-3.156-0.876-4.561-1.491-0.863-0.375-1.585-0.754-2.275-1.178l0.078 0.045-0.681-0.414c0.754 0.022 1.637 0.23 2.479 0.093 0.764-0.123 1.512-0.090 2.216-0.244 1.755-0.386 3.314-0.895 4.656-1.682 0.652-0.381 1.64-0.827 2.103-1.377-0.872 0.015-1.662-0.188-2.31-0.415-2.51-0.887-3.972-2.516-4.923-4.965 0.761 0.084 2.952 0.282 3.465-0.151-0.958-0.053-1.878-0.607-2.537-1.020-2.020-1.263-3.666-3.382-3.654-6.643l0.795 0.377c0.508 0.214 1.024 0.328 1.628 0.454 0.256 0.053 0.767 0.202 1.061 0.093h-0.038c-0.39-0.454-1.027-0.757-1.42-1.246-1.296-1.609-2.509-4.087-1.742-7.039 0.195-0.749 0.504-1.41 0.833-2.020l0.038 0.018c0.151 0.316 0.488 0.548 0.7 0.813 0.662 0.82 1.478 1.557 2.31 2.208 2.834 2.216 5.386 3.579 9.485 4.587 1.042 0.276 2.241 0.441 3.476 0.454l0.008 0c-0.349-1.015-0.236-2.66 0.037-3.642 0.692-2.474 2.191-4.254 4.393-5.21 0.488-0.21 1.064-0.392 1.661-0.518l0.062-0.011 0.947-0.112z"></path>
</symbol>
</defs>
</svg>
