<svg aria-hidden="true" style="position:absolute;width:0;height:0" xmlns="http://www.w3.org/2000/svg" overflow="hidden"><defs><symbol id="icon-glass" viewBox="0 0 32 32"><path d="M31.445 27.203a2.996 2.996 0 11-4.238 4.236l-8.78-8.778a11.783 11.783 0 01-6.077 1.669C5.732 24.33.367 18.965.367 12.347S5.732.364 12.35.364s11.983 5.365 11.983 11.983a11.862 11.862 0 01-1.699 6.131l.03-.054 8.78 8.78zM12.351 3.357a8.988 8.988 0 00.001 17.976h.001a8.987 8.987 0 00-.001-17.974h-.001z"/></symbol><symbol id="icon-shoping-cart" viewBox="0 0 38 32"><path d="M38.631 8.694h.002L33.239 20.68a1.806 1.806 0 01-1.513 1.057h-.006l-15.534 1.035.898 2.563h16.914a3.596 3.596 0 11-3.596 3.598H13.621a3.596 3.596 0 11-3.596-3.598h3.249L6.352 5.56H2.233a1.798 1.798 0 010-3.596h5.394c.785 0 1.445.506 1.691 1.205l.007-.002 1.046 2.992h26.623a1.797 1.797 0 011.632 2.546l.005-.011zm-27 1.061l3.323 9.495 15.449-1.031 3.809-8.465H11.63z"/></symbol></defs></svg>