<svg aria-hidden="true" style="position:absolute;width:0;height:0" xmlns="http://www.w3.org/2000/svg" overflow="hidden"><defs><symbol id="icon-facebook" viewBox="0 0 16 32"><path d="M15.586.249v5.147s-3.793-.378-4.744 1.075c-.52.794-.211 3.123-.257 4.794h5.032c-.425 1.953-.729 3.277-1.043 4.969h-4.017v15.992H3.585v-15.93H.619v-5.031h2.934c.15-3.68.206-7.324 2.035-9.18C7.641-.002 9.601.249 15.586.249z"/></symbol><symbol id="icon-instagram" viewBox="0 0 32 32"><path d="M28.37 32.225H4.389a3.997 3.997 0 01-3.997-3.997V4.246A3.997 3.997 0 014.389.249H28.37a3.997 3.997 0 013.997 3.997v23.982a3.997 3.997 0 01-3.997 3.997zM16.379 10.041a6.193 6.193 0 00-5.602 3.559l-.016.038h-.006l-.027.069a4.498 4.498 0 00-.145.356l-.015.045c-.024.066-.05.13-.071.195a4.533 4.533 0 00-.111.387l-.008.037c-.018.066-.037.132-.052.2-.025.114-.052.27-.073.428l-.003.031c-.009.062-.021.124-.029.187a6.195 6.195 0 1012.315-.028l.003.028c-.008-.064-.02-.125-.029-.187a6.273 6.273 0 00-.083-.5l.007.04c-.015-.067-.035-.134-.052-.2a5.294 5.294 0 00-.13-.463l.011.039c-.021-.065-.047-.129-.071-.195a5.806 5.806 0 00-.176-.442l.017.041-.027-.069H22c-1.005-2.14-3.141-3.596-5.618-3.597zm12.39-4.597a1.6 1.6 0 00-1.599-1.598h-3.197c-.883 0-1.598.715-1.599 1.597v3.199a1.6 1.6 0 001.599 1.599h3.197a1.6 1.6 0 001.599-1.599V5.443zm0 8.194h-2.948c.223.779.351 1.674.351 2.599 0 5.407-4.384 9.791-9.791 9.791h-.006c-5.407 0-9.791-4.384-9.791-9.791 0-.925.128-1.82.368-2.668l-.017.069H3.987v13.391a1.6 1.6 0 001.599 1.599h21.583a1.6 1.6 0 001.599-1.599V13.638z"/></symbol><symbol id="icon-pinterest" viewBox="0 0 26 32"><path d="M11.991 21.051c-.261 1.04-.525 2.131-.797 3.197-.269 1.052-.506 2.118-.897 3.085-.648 1.6-1.471 3.146-2.552 4.398-.718.833-.566.501-.782.456-.165-.035-.179-.196-.211-.431-.176-1.271-.056-2.742.009-4.171.075-1.629.417-2.983.736-4.335.605-2.578 1.182-5.105 1.792-7.699.04-.172.15-.457.112-.556-.277-.721-.457-1.368-.536-2.125a6.748 6.748 0 01.185-2.474l-.011.047c.346-1.321 1.14-2.492 2.366-2.92.779-.27 1.642-.147 2.167.165.54.323.911.833 1.083 1.556.185.768.049 1.687-.1 2.362-.334 1.523-.772 2.665-1.17 4.134-.197.728-.421 1.476-.236 2.263a2.64 2.64 0 001.058 1.593c.532.387 1.162.598 2.03.568 1.534-.054 2.599-1.034 3.311-1.958 1.14-1.48 1.83-3.477 2.092-5.853.084-.767.146-1.647.087-2.516-.11-1.604-.611-2.894-1.408-3.893-.757-.953-1.831-1.71-3.138-2.137-1.295-.422-3.088-.563-4.68-.291-2.895.496-4.936 2.141-6.139 4.413a8.729 8.729 0 00-1.046 4.172v.091-.005c0 1.313.324 2.329.847 3.123.166.251.41.458.572.746.231.407-.035 1.013-.149 1.454-.137.531-.152 1.264-.772 1.276-.257.005-.58-.182-.797-.303-1.63-.901-2.619-2.539-3.025-4.664-.118-.608-.185-1.307-.185-2.022s.067-1.414.196-2.092l-.011.069a11.582 11.582 0 015.437-7.645l.053-.029c1.394-.824 2.966-1.403 4.88-1.681.575-.08 1.268-.14 1.969-.164l.035-.001a12.007 12.007 0 015.48 1.043l-.076-.031a11.1 11.1 0 013.714 2.672l.008.009c1.047 1.143 1.809 2.472 2.291 4.133.252.864.497 1.789.497 2.857 0 1.072-.226 2.015-.385 2.958-.592 3.532-2.272 6.421-4.794 8.066a8.163 8.163 0 01-2.132.995l-.059.015c-.833.242-1.784.425-2.802.353a5.707 5.707 0 01-2.505-.736l.028.015c-.674-.381-1.242-.848-1.644-1.554z"/></symbol><symbol id="icon-twitter" viewBox="0 0 38 32"><path d="M25.878 1.528c3.005-.053 4.606 1.042 6.134 2.434 1.297-.111 2.983-.835 3.976-1.34l.965-.527c-.567 1.532-1.336 2.732-2.518 3.644-.263.201-.523.474-.853.603v.019c1.684-.016 3.073-.777 4.393-1.189v.019c-.693 1.101-1.631 2.219-2.632 3.02l-1.212.962c.022 1.784-.027 3.486-.359 4.984-1.939 8.711-7.075 14.624-15.203 17.158-2.92.909-7.636 1.283-10.982.452-1.658-.411-3.156-.876-4.561-1.491a17.775 17.775 0 01-2.275-1.178l.078.045-.681-.414c.754.022 1.637.23 2.479.093.764-.123 1.512-.09 2.216-.244 1.755-.386 3.314-.895 4.656-1.682.652-.381 1.64-.827 2.103-1.377-.872.015-1.662-.188-2.31-.415-2.51-.887-3.972-2.516-4.923-4.965.761.084 2.952.282 3.465-.151-.958-.053-1.878-.607-2.537-1.02-2.02-1.263-3.666-3.382-3.654-6.643l.795.377c.508.214 1.024.328 1.628.454.256.053.767.202 1.061.093h-.038c-.39-.454-1.027-.757-1.42-1.246-1.296-1.609-2.509-4.087-1.742-7.039.195-.749.504-1.41.833-2.02l.038.018c.151.316.488.548.7.813.662.82 1.478 1.557 2.31 2.208 2.834 2.216 5.386 3.579 9.485 4.587 1.042.276 2.241.441 3.476.454h.008c-.349-1.015-.236-2.66.037-3.642.692-2.474 2.191-4.254 4.393-5.21a8.97 8.97 0 011.661-.518l.062-.011.947-.112z"/></symbol></defs></svg>